<mxfile host="app.diagrams.net" modified="2022-09-14T06:44:31.231Z" agent="5.0 (Macintosh; Intel Mac OS X 10_15_7) AppleWebKit/537.36 (KHTML, like Gecko) Chrome/105.0.0.0 Safari/537.36" etag="Flm2iZkVb0o67gBu73r0" version="20.3.0" type="github">
  <diagram id="79QIZ9K7sWwsWVoYhZNz" name="Page-1">
    <mxGraphModel dx="1183" dy="808" grid="1" gridSize="10" guides="1" tooltips="1" connect="1" arrows="1" fold="1" page="1" pageScale="1" pageWidth="827" pageHeight="1169" math="0" shadow="0">
      <root>
        <mxCell id="0" />
        <mxCell id="1" parent="0" />
        <mxCell id="_4DhYID-9mjFYB9Nwt15-9" style="edgeStyle=orthogonalEdgeStyle;rounded=0;orthogonalLoop=1;jettySize=auto;html=1;exitX=1;exitY=0.25;exitDx=0;exitDy=0;entryX=0.075;entryY=0.2;entryDx=0;entryDy=0;entryPerimeter=0;fontSize=14;" edge="1" parent="1" source="_4DhYID-9mjFYB9Nwt15-1" target="_4DhYID-9mjFYB9Nwt15-4">
          <mxGeometry relative="1" as="geometry">
            <Array as="points">
              <mxPoint x="300" y="215" />
              <mxPoint x="300" y="215" />
            </Array>
          </mxGeometry>
        </mxCell>
        <mxCell id="_4DhYID-9mjFYB9Nwt15-10" style="edgeStyle=orthogonalEdgeStyle;rounded=0;orthogonalLoop=1;jettySize=auto;html=1;exitX=1;exitY=0.75;exitDx=0;exitDy=0;entryX=1;entryY=0.75;entryDx=0;entryDy=0;fontSize=14;" edge="1" parent="1" source="_4DhYID-9mjFYB9Nwt15-1" target="_4DhYID-9mjFYB9Nwt15-1">
          <mxGeometry relative="1" as="geometry" />
        </mxCell>
        <mxCell id="_4DhYID-9mjFYB9Nwt15-1" value="" style="rounded=0;whiteSpace=wrap;html=1;" vertex="1" parent="1">
          <mxGeometry x="60" y="200" width="120" height="60" as="geometry" />
        </mxCell>
        <mxCell id="_4DhYID-9mjFYB9Nwt15-2" value="&lt;font style=&quot;font-size: 14px;&quot;&gt;User&lt;/font&gt;" style="text;html=1;resizable=0;autosize=1;align=center;verticalAlign=middle;points=[];fillColor=none;strokeColor=none;rounded=0;" vertex="1" parent="1">
          <mxGeometry x="95" y="215" width="50" height="30" as="geometry" />
        </mxCell>
        <mxCell id="_4DhYID-9mjFYB9Nwt15-3" value="" style="ellipse;whiteSpace=wrap;html=1;aspect=fixed;fontSize=14;" vertex="1" parent="1">
          <mxGeometry x="334" y="190" width="80" height="80" as="geometry" />
        </mxCell>
        <mxCell id="_4DhYID-9mjFYB9Nwt15-4" value="E-challan&lt;br&gt;portal" style="text;html=1;resizable=0;autosize=1;align=center;verticalAlign=middle;points=[];fillColor=none;strokeColor=none;rounded=0;fontSize=14;" vertex="1" parent="1">
          <mxGeometry x="334" y="205" width="80" height="50" as="geometry" />
        </mxCell>
        <mxCell id="_4DhYID-9mjFYB9Nwt15-18" style="edgeStyle=orthogonalEdgeStyle;rounded=0;orthogonalLoop=1;jettySize=auto;html=1;exitX=0;exitY=0.75;exitDx=0;exitDy=0;entryX=1;entryY=0.7;entryDx=0;entryDy=0;entryPerimeter=0;fontSize=12;" edge="1" parent="1" source="_4DhYID-9mjFYB9Nwt15-5" target="_4DhYID-9mjFYB9Nwt15-4">
          <mxGeometry relative="1" as="geometry" />
        </mxCell>
        <mxCell id="_4DhYID-9mjFYB9Nwt15-44" style="edgeStyle=orthogonalEdgeStyle;rounded=0;orthogonalLoop=1;jettySize=auto;html=1;exitX=0.5;exitY=0;exitDx=0;exitDy=0;entryX=0.619;entryY=0.024;entryDx=0;entryDy=0;entryPerimeter=0;fontSize=12;endArrow=classic;endFill=1;" edge="1" parent="1" source="_4DhYID-9mjFYB9Nwt15-5" target="_4DhYID-9mjFYB9Nwt15-25">
          <mxGeometry relative="1" as="geometry" />
        </mxCell>
        <mxCell id="_4DhYID-9mjFYB9Nwt15-5" value="" style="rounded=0;whiteSpace=wrap;html=1;" vertex="1" parent="1">
          <mxGeometry x="570" y="195" width="120" height="60" as="geometry" />
        </mxCell>
        <mxCell id="_4DhYID-9mjFYB9Nwt15-6" value="&lt;font style=&quot;font-size: 14px;&quot;&gt;Admin&lt;/font&gt;" style="text;html=1;resizable=0;autosize=1;align=center;verticalAlign=middle;points=[];fillColor=none;strokeColor=none;rounded=0;" vertex="1" parent="1">
          <mxGeometry x="600" y="210" width="60" height="30" as="geometry" />
        </mxCell>
        <mxCell id="_4DhYID-9mjFYB9Nwt15-7" value="Zero Level DFD" style="text;html=1;resizable=0;autosize=1;align=center;verticalAlign=middle;points=[];fillColor=none;strokeColor=none;rounded=0;fontSize=14;" vertex="1" parent="1">
          <mxGeometry x="314" y="80" width="120" height="30" as="geometry" />
        </mxCell>
        <mxCell id="_4DhYID-9mjFYB9Nwt15-12" value="&lt;font style=&quot;font-size: 12px;&quot;&gt;Request information&lt;/font&gt;" style="text;html=1;resizable=0;autosize=1;align=center;verticalAlign=middle;points=[];fillColor=none;strokeColor=none;rounded=0;fontSize=14;" vertex="1" parent="1">
          <mxGeometry x="200" y="185" width="130" height="30" as="geometry" />
        </mxCell>
        <mxCell id="_4DhYID-9mjFYB9Nwt15-13" value="" style="edgeStyle=none;orthogonalLoop=1;jettySize=auto;html=1;rounded=0;fontSize=12;exitX=0.075;exitY=0.8;exitDx=0;exitDy=0;exitPerimeter=0;" edge="1" parent="1" source="_4DhYID-9mjFYB9Nwt15-4">
          <mxGeometry width="80" relative="1" as="geometry">
            <mxPoint x="310" y="245" as="sourcePoint" />
            <mxPoint x="180" y="245" as="targetPoint" />
            <Array as="points" />
          </mxGeometry>
        </mxCell>
        <mxCell id="_4DhYID-9mjFYB9Nwt15-14" value="&lt;font style=&quot;font-size: 12px;&quot;&gt;Retreive information&lt;/font&gt;" style="text;html=1;resizable=0;autosize=1;align=center;verticalAlign=middle;points=[];fillColor=none;strokeColor=none;rounded=0;fontSize=14;" vertex="1" parent="1">
          <mxGeometry x="200" y="240" width="130" height="30" as="geometry" />
        </mxCell>
        <mxCell id="_4DhYID-9mjFYB9Nwt15-17" style="edgeStyle=orthogonalEdgeStyle;rounded=0;orthogonalLoop=1;jettySize=auto;html=1;entryX=0.075;entryY=0.2;entryDx=0;entryDy=0;entryPerimeter=0;fontSize=14;" edge="1" parent="1">
          <mxGeometry relative="1" as="geometry">
            <mxPoint x="410" y="214" as="sourcePoint" />
            <mxPoint x="574" y="214" as="targetPoint" />
          </mxGeometry>
        </mxCell>
        <mxCell id="_4DhYID-9mjFYB9Nwt15-19" value="First Level DFD" style="text;html=1;resizable=0;autosize=1;align=center;verticalAlign=middle;points=[];fillColor=none;strokeColor=none;rounded=0;fontSize=14;" vertex="1" parent="1">
          <mxGeometry x="314" y="440" width="120" height="30" as="geometry" />
        </mxCell>
        <mxCell id="_4DhYID-9mjFYB9Nwt15-86" style="edgeStyle=orthogonalEdgeStyle;rounded=0;orthogonalLoop=1;jettySize=auto;html=1;exitX=0.5;exitY=1;exitDx=0;exitDy=0;entryX=0.518;entryY=-0.01;entryDx=0;entryDy=0;entryPerimeter=0;fontSize=12;endArrow=classic;endFill=1;" edge="1" parent="1" source="_4DhYID-9mjFYB9Nwt15-20" target="_4DhYID-9mjFYB9Nwt15-85">
          <mxGeometry relative="1" as="geometry" />
        </mxCell>
        <mxCell id="_4DhYID-9mjFYB9Nwt15-20" value="" style="rounded=0;whiteSpace=wrap;html=1;" vertex="1" parent="1">
          <mxGeometry x="60" y="520" width="120" height="60" as="geometry" />
        </mxCell>
        <mxCell id="_4DhYID-9mjFYB9Nwt15-21" value="&lt;font style=&quot;font-size: 14px;&quot;&gt;User&lt;/font&gt;" style="text;html=1;resizable=0;autosize=1;align=center;verticalAlign=middle;points=[];fillColor=none;strokeColor=none;rounded=0;" vertex="1" parent="1">
          <mxGeometry x="95" y="535" width="50" height="30" as="geometry" />
        </mxCell>
        <mxCell id="_4DhYID-9mjFYB9Nwt15-25" value="0" style="text;html=1;resizable=0;autosize=1;align=center;verticalAlign=middle;points=[];fillColor=none;strokeColor=none;rounded=0;fontSize=12;" vertex="1" parent="1">
          <mxGeometry x="359" y="190" width="30" height="30" as="geometry" />
        </mxCell>
        <mxCell id="_4DhYID-9mjFYB9Nwt15-42" value="&lt;font style=&quot;font-size: 12px;&quot;&gt;Request information&lt;/font&gt;" style="text;html=1;resizable=0;autosize=1;align=center;verticalAlign=middle;points=[];fillColor=none;strokeColor=none;rounded=0;fontSize=14;" vertex="1" parent="1">
          <mxGeometry x="430" y="185" width="130" height="30" as="geometry" />
        </mxCell>
        <mxCell id="_4DhYID-9mjFYB9Nwt15-43" value="&lt;font style=&quot;font-size: 12px;&quot;&gt;Retreive information&lt;/font&gt;" style="text;html=1;resizable=0;autosize=1;align=center;verticalAlign=middle;points=[];fillColor=none;strokeColor=none;rounded=0;fontSize=14;" vertex="1" parent="1">
          <mxGeometry x="430" y="240" width="130" height="30" as="geometry" />
        </mxCell>
        <mxCell id="_4DhYID-9mjFYB9Nwt15-45" value="&lt;font style=&quot;font-size: 12px;&quot;&gt;Update challan information&lt;/font&gt;" style="text;html=1;resizable=0;autosize=1;align=center;verticalAlign=middle;points=[];fillColor=none;strokeColor=none;rounded=0;fontSize=14;" vertex="1" parent="1">
          <mxGeometry x="410" y="140" width="170" height="30" as="geometry" />
        </mxCell>
        <mxCell id="_4DhYID-9mjFYB9Nwt15-53" style="edgeStyle=orthogonalEdgeStyle;rounded=0;orthogonalLoop=1;jettySize=auto;html=1;exitX=1;exitY=0.5;exitDx=0;exitDy=0;entryX=0.487;entryY=-0.052;entryDx=0;entryDy=0;entryPerimeter=0;fontSize=12;endArrow=classic;endFill=1;" edge="1" parent="1" source="_4DhYID-9mjFYB9Nwt15-46" target="_4DhYID-9mjFYB9Nwt15-57">
          <mxGeometry relative="1" as="geometry" />
        </mxCell>
        <mxCell id="_4DhYID-9mjFYB9Nwt15-46" value="" style="rounded=0;whiteSpace=wrap;html=1;" vertex="1" parent="1">
          <mxGeometry x="570" y="520" width="120" height="60" as="geometry" />
        </mxCell>
        <mxCell id="_4DhYID-9mjFYB9Nwt15-47" value="&lt;font style=&quot;font-size: 14px;&quot;&gt;Admin&lt;/font&gt;" style="text;html=1;resizable=0;autosize=1;align=center;verticalAlign=middle;points=[];fillColor=none;strokeColor=none;rounded=0;" vertex="1" parent="1">
          <mxGeometry x="600" y="535" width="60" height="30" as="geometry" />
        </mxCell>
        <mxCell id="_4DhYID-9mjFYB9Nwt15-61" style="edgeStyle=orthogonalEdgeStyle;rounded=0;orthogonalLoop=1;jettySize=auto;html=1;exitX=0.5;exitY=1;exitDx=0;exitDy=0;entryX=0.504;entryY=0.046;entryDx=0;entryDy=0;entryPerimeter=0;fontSize=12;endArrow=classic;endFill=1;" edge="1" parent="1" source="_4DhYID-9mjFYB9Nwt15-51" target="_4DhYID-9mjFYB9Nwt15-60">
          <mxGeometry relative="1" as="geometry" />
        </mxCell>
        <mxCell id="_4DhYID-9mjFYB9Nwt15-51" value="" style="ellipse;whiteSpace=wrap;html=1;aspect=fixed;fontSize=12;" vertex="1" parent="1">
          <mxGeometry x="670" y="650" width="80" height="80" as="geometry" />
        </mxCell>
        <mxCell id="_4DhYID-9mjFYB9Nwt15-52" value="Login to&amp;nbsp;&lt;br&gt;system" style="text;html=1;resizable=0;autosize=1;align=center;verticalAlign=middle;points=[];fillColor=none;strokeColor=none;rounded=0;fontSize=12;" vertex="1" parent="1">
          <mxGeometry x="675" y="670" width="70" height="40" as="geometry" />
        </mxCell>
        <mxCell id="_4DhYID-9mjFYB9Nwt15-54" value="Login&lt;br&gt;Credentials" style="text;html=1;resizable=0;autosize=1;align=center;verticalAlign=middle;points=[];fillColor=none;strokeColor=none;rounded=0;fontSize=12;rotation=90;" vertex="1" parent="1">
          <mxGeometry x="700" y="585" width="80" height="40" as="geometry" />
        </mxCell>
        <mxCell id="_4DhYID-9mjFYB9Nwt15-57" value="1" style="text;html=1;resizable=0;autosize=1;align=center;verticalAlign=middle;points=[];fillColor=none;strokeColor=none;rounded=0;fontSize=12;" vertex="1" parent="1">
          <mxGeometry x="695" y="650" width="30" height="30" as="geometry" />
        </mxCell>
        <mxCell id="_4DhYID-9mjFYB9Nwt15-58" value="" style="ellipse;whiteSpace=wrap;html=1;aspect=fixed;fontSize=12;" vertex="1" parent="1">
          <mxGeometry x="585" y="775" width="80" height="80" as="geometry" />
        </mxCell>
        <mxCell id="_4DhYID-9mjFYB9Nwt15-59" value="Check if&lt;br&gt;pending&lt;br&gt;challan" style="text;html=1;resizable=0;autosize=1;align=center;verticalAlign=middle;points=[];fillColor=none;strokeColor=none;rounded=0;fontSize=12;" vertex="1" parent="1">
          <mxGeometry x="590" y="795" width="70" height="60" as="geometry" />
        </mxCell>
        <mxCell id="_4DhYID-9mjFYB9Nwt15-60" value="2" style="text;html=1;resizable=0;autosize=1;align=center;verticalAlign=middle;points=[];fillColor=none;strokeColor=none;rounded=0;fontSize=12;" vertex="1" parent="1">
          <mxGeometry x="610" y="775" width="30" height="30" as="geometry" />
        </mxCell>
        <mxCell id="_4DhYID-9mjFYB9Nwt15-62" value="username&lt;br&gt;" style="text;html=1;resizable=0;autosize=1;align=center;verticalAlign=middle;points=[];fillColor=none;strokeColor=none;rounded=0;fontSize=12;rotation=0;" vertex="1" parent="1">
          <mxGeometry x="630" y="730" width="80" height="30" as="geometry" />
        </mxCell>
        <mxCell id="_4DhYID-9mjFYB9Nwt15-64" value="" style="ellipse;whiteSpace=wrap;html=1;aspect=fixed;fontSize=12;" vertex="1" parent="1">
          <mxGeometry x="410" y="855" width="80" height="80" as="geometry" />
        </mxCell>
        <mxCell id="_4DhYID-9mjFYB9Nwt15-65" value="Updating to&amp;nbsp;&lt;br&gt;database" style="text;html=1;resizable=0;autosize=1;align=center;verticalAlign=middle;points=[];fillColor=none;strokeColor=none;rounded=0;fontSize=12;" vertex="1" parent="1">
          <mxGeometry x="405" y="885" width="90" height="40" as="geometry" />
        </mxCell>
        <mxCell id="_4DhYID-9mjFYB9Nwt15-66" value="4" style="text;html=1;resizable=0;autosize=1;align=center;verticalAlign=middle;points=[];fillColor=none;strokeColor=none;rounded=0;fontSize=12;" vertex="1" parent="1">
          <mxGeometry x="435" y="855" width="30" height="30" as="geometry" />
        </mxCell>
        <mxCell id="_4DhYID-9mjFYB9Nwt15-76" style="edgeStyle=orthogonalEdgeStyle;rounded=0;orthogonalLoop=1;jettySize=auto;html=1;exitX=0;exitY=0.5;exitDx=0;exitDy=0;fontSize=12;endArrow=classic;endFill=1;entryX=1;entryY=0.5;entryDx=0;entryDy=0;" edge="1" parent="1" source="_4DhYID-9mjFYB9Nwt15-67" target="_4DhYID-9mjFYB9Nwt15-20">
          <mxGeometry relative="1" as="geometry">
            <mxPoint x="300" y="640" as="targetPoint" />
          </mxGeometry>
        </mxCell>
        <mxCell id="_4DhYID-9mjFYB9Nwt15-67" value="" style="ellipse;whiteSpace=wrap;html=1;aspect=fixed;fontSize=12;" vertex="1" parent="1">
          <mxGeometry x="405" y="715" width="80" height="80" as="geometry" />
        </mxCell>
        <mxCell id="_4DhYID-9mjFYB9Nwt15-68" value="Send e-mail&lt;br&gt;to user" style="text;html=1;resizable=0;autosize=1;align=center;verticalAlign=middle;points=[];fillColor=none;strokeColor=none;rounded=0;fontSize=12;" vertex="1" parent="1">
          <mxGeometry x="400" y="745" width="90" height="40" as="geometry" />
        </mxCell>
        <mxCell id="_4DhYID-9mjFYB9Nwt15-69" value="3" style="text;html=1;resizable=0;autosize=1;align=center;verticalAlign=middle;points=[];fillColor=none;strokeColor=none;rounded=0;fontSize=12;" vertex="1" parent="1">
          <mxGeometry x="430" y="715" width="30" height="30" as="geometry" />
        </mxCell>
        <mxCell id="_4DhYID-9mjFYB9Nwt15-71" style="edgeStyle=orthogonalEdgeStyle;rounded=0;orthogonalLoop=1;jettySize=auto;html=1;exitX=0.006;exitY=0.596;exitDx=0;exitDy=0;entryX=1;entryY=0.5;entryDx=0;entryDy=0;fontSize=12;endArrow=classic;endFill=1;exitPerimeter=0;" edge="1" parent="1" source="_4DhYID-9mjFYB9Nwt15-58" target="_4DhYID-9mjFYB9Nwt15-64">
          <mxGeometry relative="1" as="geometry">
            <mxPoint x="595.0000000000002" y="825" as="sourcePoint" />
            <mxPoint x="500.53999999999996" y="760" as="targetPoint" />
          </mxGeometry>
        </mxCell>
        <mxCell id="_4DhYID-9mjFYB9Nwt15-72" style="edgeStyle=orthogonalEdgeStyle;rounded=0;orthogonalLoop=1;jettySize=auto;html=1;exitX=-0.009;exitY=0.553;exitDx=0;exitDy=0;entryX=0.928;entryY=0.031;entryDx=0;entryDy=0;fontSize=12;endArrow=classic;endFill=1;exitPerimeter=0;entryPerimeter=0;" edge="1" parent="1" source="_4DhYID-9mjFYB9Nwt15-58" target="_4DhYID-9mjFYB9Nwt15-68">
          <mxGeometry relative="1" as="geometry">
            <mxPoint x="600" y="820" as="sourcePoint" />
            <mxPoint x="504.52" y="892.32" as="targetPoint" />
          </mxGeometry>
        </mxCell>
        <mxCell id="_4DhYID-9mjFYB9Nwt15-73" value="Yes" style="text;html=1;resizable=0;autosize=1;align=center;verticalAlign=middle;points=[];fillColor=none;strokeColor=none;rounded=0;fontSize=12;" vertex="1" parent="1">
          <mxGeometry x="540" y="795" width="40" height="30" as="geometry" />
        </mxCell>
        <mxCell id="_4DhYID-9mjFYB9Nwt15-74" value="No" style="text;html=1;resizable=0;autosize=1;align=center;verticalAlign=middle;points=[];fillColor=none;strokeColor=none;rounded=0;fontSize=12;" vertex="1" parent="1">
          <mxGeometry x="540" y="820" width="40" height="30" as="geometry" />
        </mxCell>
        <mxCell id="_4DhYID-9mjFYB9Nwt15-77" value="Reminder&amp;nbsp;&lt;br&gt;E-mail" style="text;html=1;resizable=0;autosize=1;align=center;verticalAlign=middle;points=[];fillColor=none;strokeColor=none;rounded=0;fontSize=12;rotation=0;" vertex="1" parent="1">
          <mxGeometry x="290" y="710" width="80" height="40" as="geometry" />
        </mxCell>
        <mxCell id="_4DhYID-9mjFYB9Nwt15-79" value="" style="endArrow=none;html=1;rounded=0;fontSize=12;" edge="1" parent="1">
          <mxGeometry width="50" height="50" relative="1" as="geometry">
            <mxPoint x="70" y="880" as="sourcePoint" />
            <mxPoint x="200" y="880" as="targetPoint" />
          </mxGeometry>
        </mxCell>
        <mxCell id="_4DhYID-9mjFYB9Nwt15-80" value="" style="endArrow=none;html=1;rounded=0;fontSize=12;" edge="1" parent="1">
          <mxGeometry width="50" height="50" relative="1" as="geometry">
            <mxPoint x="70" y="925" as="sourcePoint" />
            <mxPoint x="200" y="925" as="targetPoint" />
          </mxGeometry>
        </mxCell>
        <mxCell id="_4DhYID-9mjFYB9Nwt15-81" value="Challan database" style="text;html=1;resizable=0;autosize=1;align=center;verticalAlign=middle;points=[];fillColor=none;strokeColor=none;rounded=0;fontSize=12;" vertex="1" parent="1">
          <mxGeometry x="80" y="885" width="120" height="30" as="geometry" />
        </mxCell>
        <mxCell id="_4DhYID-9mjFYB9Nwt15-82" style="edgeStyle=orthogonalEdgeStyle;rounded=0;orthogonalLoop=1;jettySize=auto;html=1;exitX=0.056;exitY=0.376;exitDx=0;exitDy=0;fontSize=12;endArrow=classic;endFill=1;exitPerimeter=0;" edge="1" parent="1" source="_4DhYID-9mjFYB9Nwt15-65" target="_4DhYID-9mjFYB9Nwt15-81">
          <mxGeometry relative="1" as="geometry">
            <mxPoint x="359" y="884.9999999999999" as="sourcePoint" />
            <mxPoint x="263.52" y="957.32" as="targetPoint" />
          </mxGeometry>
        </mxCell>
        <mxCell id="_4DhYID-9mjFYB9Nwt15-92" style="edgeStyle=orthogonalEdgeStyle;rounded=0;orthogonalLoop=1;jettySize=auto;html=1;exitX=0.5;exitY=1;exitDx=0;exitDy=0;fontSize=12;endArrow=classic;endFill=1;" edge="1" parent="1" source="_4DhYID-9mjFYB9Nwt15-83" target="_4DhYID-9mjFYB9Nwt15-90">
          <mxGeometry relative="1" as="geometry" />
        </mxCell>
        <mxCell id="_4DhYID-9mjFYB9Nwt15-83" value="" style="ellipse;whiteSpace=wrap;html=1;aspect=fixed;fontSize=12;" vertex="1" parent="1">
          <mxGeometry x="80" y="625" width="80" height="80" as="geometry" />
        </mxCell>
        <mxCell id="_4DhYID-9mjFYB9Nwt15-84" value="Login to&lt;br&gt;website" style="text;html=1;resizable=0;autosize=1;align=center;verticalAlign=middle;points=[];fillColor=none;strokeColor=none;rounded=0;fontSize=12;" vertex="1" parent="1">
          <mxGeometry x="85" y="655" width="70" height="40" as="geometry" />
        </mxCell>
        <mxCell id="_4DhYID-9mjFYB9Nwt15-85" value="5" style="text;html=1;resizable=0;autosize=1;align=center;verticalAlign=middle;points=[];fillColor=none;strokeColor=none;rounded=0;fontSize=12;" vertex="1" parent="1">
          <mxGeometry x="105" y="625" width="30" height="30" as="geometry" />
        </mxCell>
        <mxCell id="_4DhYID-9mjFYB9Nwt15-87" value="Login&amp;nbsp;&lt;br&gt;credentials" style="text;html=1;resizable=0;autosize=1;align=center;verticalAlign=middle;points=[];fillColor=none;strokeColor=none;rounded=0;fontSize=12;" vertex="1" parent="1">
          <mxGeometry x="120" y="580" width="80" height="40" as="geometry" />
        </mxCell>
        <mxCell id="_4DhYID-9mjFYB9Nwt15-94" style="edgeStyle=orthogonalEdgeStyle;rounded=0;orthogonalLoop=1;jettySize=auto;html=1;exitX=1;exitY=0.5;exitDx=0;exitDy=0;entryX=-0.001;entryY=0.261;entryDx=0;entryDy=0;entryPerimeter=0;fontSize=12;endArrow=classic;endFill=1;" edge="1" parent="1" source="_4DhYID-9mjFYB9Nwt15-88" target="_4DhYID-9mjFYB9Nwt15-64">
          <mxGeometry relative="1" as="geometry" />
        </mxCell>
        <mxCell id="_4DhYID-9mjFYB9Nwt15-88" value="" style="ellipse;whiteSpace=wrap;html=1;aspect=fixed;fontSize=12;" vertex="1" parent="1">
          <mxGeometry x="80" y="745" width="80" height="80" as="geometry" />
        </mxCell>
        <mxCell id="_4DhYID-9mjFYB9Nwt15-89" value="Pay&lt;br&gt;Challan" style="text;html=1;resizable=0;autosize=1;align=center;verticalAlign=middle;points=[];fillColor=none;strokeColor=none;rounded=0;fontSize=12;" vertex="1" parent="1">
          <mxGeometry x="90" y="775" width="60" height="40" as="geometry" />
        </mxCell>
        <mxCell id="_4DhYID-9mjFYB9Nwt15-90" value="6" style="text;html=1;resizable=0;autosize=1;align=center;verticalAlign=middle;points=[];fillColor=none;strokeColor=none;rounded=0;fontSize=12;" vertex="1" parent="1">
          <mxGeometry x="105" y="745" width="30" height="30" as="geometry" />
        </mxCell>
        <mxCell id="_4DhYID-9mjFYB9Nwt15-93" value="Transaction&lt;br&gt;information" style="text;html=1;resizable=0;autosize=1;align=center;verticalAlign=middle;points=[];fillColor=none;strokeColor=none;rounded=0;fontSize=12;" vertex="1" parent="1">
          <mxGeometry x="115" y="705" width="90" height="40" as="geometry" />
        </mxCell>
      </root>
    </mxGraphModel>
  </diagram>
</mxfile>
